# AST/ASF file generated using VICON BodyLanguage
# -----------------------------------------------
:version 1.10
:name VICON
:units
  mass 1.0
  length 0.45
  angle deg
:documentation
   .ast/.asf automatically generated from VICON data using
   VICON BodyBuilder and BodyLanguage model FoxedUp or BRILLIANT.MOD
:root
   order TX TY TZ RX RY RZ
   axis XYZ
   position 0 0 0  
   orientation 0 0 0 
:bonedata
  begin
     id 1 
     name lhipjoint
     direction 0.661853 -0.702389 0.261917 
     length 2.64193 
     axis 0 0 0  XYZ
  end
  begin
     id 2 
     name lfemur
     direction 0.34202 -0.939693 0  
     length 7.01722  
     axis 0 0 20  XYZ
    dof rx ry rz
    limits (-160.0 20.0)
           (-70.0 70.0)
           (-60.0 70.0)
  end
  begin
     id 3 
     name ltibia
     direction 0.34202 -0.939693 0   
     length 8.25008   
     axis 0 0 20   XYZ
    dof rx
    limits (-10.0 170.0)
  end
  begin
     id 4 
     name lfoot
     direction 0.0709916 -0.195048 0.978221   
     length 2.31941   
     axis -90 7.62852e-016 20   XYZ
    dof rx rz
    limits (-45.0 90.0)
           (-70.0 20.0)
  end
  begin
     id 5 
     name ltoes
     direction 1.53586e-011 -4.22017e-011 1   
     length 1.16486   
     axis -90 7.62852e-016 20   XYZ
    dof rx
    limits (-90.0 20.0)
  end
  begin
     id 6 
     name rhipjoint
     direction -0.638185 -0.721362 0.268992   
     length 2.57244  
     axis 0 0 0  XYZ 
  end
  begin
     id 7 
     name rfemur
     direction -0.34202 -0.939693 0   
     length 7.07017   
     axis 0 0 -20   XYZ
    dof rx ry rz
    limits (-160.0 20.0)
           (-70.0 70.0)
           (-70.0 60.0)
  end
  begin
     id 8 
     name rtibia
     direction -0.34202 -0.939693 0   
     length 8.20386   
     axis 0 0 -20   XYZ
    dof rx
    limits (-10.0 170.0)
 end
 begin
     id 9 
     name rfoot
     direction -0.0822429 -0.225961 0.970658   
     length 2.32215  
     axis -90 -7.62852e-016 -20   XYZ
    dof rx rz
    limits (-45.0 90.0)
           (-20.0 70.0)
  end
  begin
     id 10 
     name rtoes
     direction -1.53597e-011 -4.21689e-011 1   
     length 1.16333   
     axis -90 -7.62852e-016 -20   XYZ
    dof rx
    limits (-90.0 20.0)
  end
  begin
     id 11 
     name lowerback
     direction -0.0131557 0.998589 -0.0514484   
     length 2.14993   
     axis 0 0 0   XYZ
    dof rx ry rz
    limits (-20.0 45.0)
           (-30.0 30.0)
           (-30.0 30.0)
  end
  begin
     id 12 
     name upperback
     direction -0.000776481 0.999993 0.00352685   
     length 2.15301   
     axis 0 0 0   XYZ
    dof rx ry rz
    limits (-20.0 45.0)
           (-30.0 30.0)
           (-30.0 30.0)
  end
  begin
     id 13 
     name thorax
     direction 0.00438186 0.999609 0.0276143   
     length 2.15424   
     axis 0 0 0   XYZ
    dof rx ry rz
    limits (-20.0 45.0)
           (-30.0 30.0)
           (-30.0 30.0)
  end
  begin
     id 14 
     name lowerneck
     direction -0.0488006 0.998094 0.0377807   
     length 1.90481   
     axis 0 0 0   XYZ
    dof rx ry rz
    limits (-20.0 45.0)
           (-30.0 30.0)
           (-30.0 30.0)
  end
  begin
     id 15 
     name upperneck
     direction 0.0443769 0.990702 -0.12861   
     length 1.91305   
     axis 0 0 0   XYZ
    dof rx ry rz
    limits (-20.0 45.0)
           (-30.0 30.0)
           (-30.0 30.0)
  end
  begin
     id 16
     name head
     direction 0.0165599 0.998647 -0.0492982  
     length 1.92369  
     axis 0 0 0   XYZ
    dof rx ry rz
    limits (-20.0 45.0)
           (-30.0 30.0)
           (-30.0 30.0)
  end
  begin
     id 17 
     name lclavicle
     direction 0.911936 0.410197 -0.0105506  
     length 3.52622  
     axis 0 0 0   XYZ
    dof ry rz
    limits (-20.0 10.0)
           (0.0 20.0)
  end
  begin
     id 18 
     name lhumerus
     direction 1 -4.48974e-011 -2.48591e-028   
     length 5.47651   
     axis 180 -30 -90   XYZ
    dof rx ry rz
    limits (-60.0 90.0)
           (-90.0 90.0)
           (-90.0 90.0)
  end
  begin
     id 19
     name lradius
     direction 1 -4.48938e-011 -4.40099e-027   
     length 3.09058   
     axis 180 -30 -90   XYZ
    dof rx
    limits (-10.0 170.0)
  end
  begin
     id 20
     name lwrist
     direction 1 -4.49042e-011 -2.99852e-027   
     length 1.54529   
     axis 1.95339e-015 90 90   XYZ
    dof ry
    limits (-180.0 0.0)
 end
  begin
     id 21 
     name lhand
     direction 1 -4.48815e-011 -5.98193e-027   
     length 0.771611   
     axis 3.82337e-015 90 90   XYZ
    dof rx rz
    limits (-90.0 90.0)
           (-45.0 45.0)
  end
  begin
     id 22 
     name lfingers
     direction 1 -4.49034e-011 -1.1993e-026   
     length 0.622093   
     axis 7.64668e-015 90 90   XYZ
    dof rx
    limits (0.0 90.0)
  end
  begin
     id 23
     name lthumb
     direction 0.707107 -6.34867e-011 0.707107   
     length 0.893204   
     axis -90 45 -1.62303e-014   XYZ
    dof rx rz
    limits (-45.0 45.0)
           (-45.0 45.0)
  end
  begin
     id 24 
     name rclavicle
     direction -0.93442 0.355634 -0.0195692   
     length 3.62463  
     axis 0 0 0   XYZ 
    dof ry rz
    limits (-10.0 20.0)
           (-20.0 0.0)
  end
  begin
     id 25 
     name rhumerus
     direction -1 -4.48957e-011 -1.19147e-027  
     length 5.14182   
     axis 180 30 90   XYZ
    dof rx ry rz
    limits (-90.0 60.0)
           (-90.0 90.0)
           (-90.0 90.0)
  end
  begin
     id 26 
     name rradius
     direction -1 -4.48952e-011 -3.81062e-027   
     length 3.35565   
     axis 180 30 90   XYZ
    dof rx
    limits (-10.0 170.0)
  end
  begin
     id 27 
     name rwrist
     direction -1 -4.48973e-011 -2.99621e-027   
     length 1.67782   
     axis 1.95339e-015 -90 -90   XYZ
    dof ry
    limits (-180.0 0.0)
  end
  begin
     id 28
     name rhand
     direction -1 -4.48895e-011 -5.98727e-027   
     length 0.801042   
     axis 3.82337e-015 -90 -90   XYZ
    dof rx rz
    limits (-90.0 90.0)
           (-45.0 45.0)
  end
  begin
     id 29
     name rfingers
     direction -1 -4.49065e-011 -1.19972e-026   
     length 0.645821   
     axis 7.64668e-015 -90 -90   XYZ
    dof rx
    limits (0.0 90.0)
  end
  begin
     id 30
     name rthumb
     direction -0.707107 -6.34957e-011 0.707107   
     length 0.927273   
     axis -90 -45 1.62303e-014   XYZ
    dof rx rz
    limits (-45.0 45.0)
           (-45.0 45.0)
  end
:hierarchy
  begin
    root lhipjoint rhipjoint lowerback
    lhipjoint lfemur
    lfemur ltibia
    ltibia lfoot
    lfoot ltoes
    rhipjoint rfemur
    rfemur rtibia
    rtibia rfoot
    rfoot rtoes
    lowerback upperback
    upperback thorax
    thorax lowerneck lclavicle rclavicle
    lowerneck upperneck
    upperneck head
    lclavicle lhumerus
    lhumerus lradius
    lradius lwrist
    lwrist lhand lthumb
    lhand lfingers
    rclavicle rhumerus
    rhumerus rradius
    rradius rwrist
    rwrist rhand rthumb
    rhand rfingers
  end

#!OML:ASF E:\Style4\Style4.ASF
:FULLY-SPECIFIED
:DEGREES
195
root -0.246643 17.7559 -2.54305 -0.791558 -0.245624 1.77423
lowerback 8.6505 1.83519 -0.00508643
upperback 4.63446 2.43511 0.0898084
thorax -0.0555655 1.21682 -0.111526
lowerneck -1.92358 -4.97452 -6.56735
upperneck 10.4365 -6.80964 4.97951
head 3.82353 -3.39539 2.3006
rclavicle 2.28602e-015 6.75868e-015
rhumerus 47.3968 52.4321 -26.8194
rradius 110.984
rwrist -44.5235
rhand -9.00741 24.3328
rfingers 7.12502
rthumb 16.9393 -4.94846
lclavicle 2.28602e-015 6.75868e-015
lhumerus 77.8209 -56.213 -9.15056
lradius 77.5559
lwrist 5.46906
lhand -14.8786 15.4407
lfingers 7.12502
lthumb 11.2818 45.1173
rfemur -14.7529 -0.202346 17.2791
rtibia 33.3922
rfoot -16.4513 -14.2093
rtoes -14.2695
lfemur -12.6414 -2.24687 -19.874
ltibia 30.9142
lfoot -17.1945 7.99595
ltoes -16.7723
196
root -0.246204 17.754 -2.54296 -0.804983 -0.320485 1.74213
lowerback 8.63448 1.83179 0.0290719
upperback 4.63748 2.43287 0.0708633
thorax -0.0414091 1.21648 -0.149278
lowerneck -2.07022 -5.00515 -6.46454
upperneck 10.5265 -6.86262 5.08556
head 3.87795 -3.4109 2.30907
rclavicle 2.8128e-014 -1.43125e-014
rhumerus 46.3727 50.6758 -28.7262
rradius 110.482
rwrist -45.2676
rhand -9.71694 24.4077
rfingers 7.12502
rthumb 16.2562 -4.93076
lclavicle 2.8128e-014 -1.43125e-014
lhumerus 80.5161 -56.4779 -12.5063
lradius 78.9682
lwrist 5.04159
lhand -15.1221 15.5475
lfingers 7.12502
lthumb 11.047 45.2368
rfemur -14.7761 0.00199924 17.3281
rtibia 33.4567
rfoot -16.4955 -14.2906
rtoes -14.1437
lfemur -12.6695 -2.17465 -19.8331
ltibia 31.0128
lfoot -17.2688 7.96312
ltoes -16.6611
197
root -0.246106 17.7507 -2.5416 -0.816194 -0.369851 1.77338
lowerback 8.81054 1.83829 0.000814618
upperback 4.47635 2.43852 0.0211903
thorax -0.303691 1.21886 -0.194794
lowerneck -1.96471 -5.02188 -6.35247
upperneck 10.5489 -6.91083 5.20324
head 3.86983 -3.427 2.3272
rclavicle 1.70955e-014 -6.36111e-015
rhumerus 45.0942 49.1093 -30.8835
rradius 109.65
rwrist -45.7646
rhand -10.3187 24.4686
rfingers 7.12502
rthumb 15.6767 -4.91629
lclavicle 1.70955e-014 -6.36111e-015
lhumerus 83.1553 -56.8018 -15.6707
lradius 80.4547
lwrist 4.80331
lhand -15.0193 15.0878
lfingers 7.12502
lthumb 11.1462 44.7718
rfemur -14.8284 0.111513 17.2951
rtibia 33.5684
rfoot -16.5967 -14.3139
rtoes -13.9024
lfemur -12.6858 -2.14237 -19.862
ltibia 31.0877
lfoot -17.2926 7.94445
ltoes -16.5068
198
root -0.247064 17.7463 -2.54195 -0.828622 -0.376966 1.77068
lowerback 8.73742 1.83748 0.0723162
upperback 4.48466 2.4423 -0.0494075
thorax -0.248864 1.22273 -0.304918
lowerneck -1.80787 -5.0637 -6.31191
upperneck 10.3451 -6.99408 5.4298
head 3.79302 -3.45986 2.39158
rclavicle -4.96962e-016 -2.78299e-015
rhumerus 44.04 47.361 -32.8025
rradius 108.609
rwrist -45.9119
rhand -10.5774 24.452
rfingers 7.12502
rthumb 15.4276 -4.95231
lclavicle -4.96962e-016 -2.78299e-015
lhumerus 85.6626 -56.6792 -18.6772
lradius 82.0959
lwrist 4.5858
lhand -14.655 14.6348
lfingers 7.12502
lthumb 11.4975 44.2995
rfemur -14.861 0.14664 17.3094
rtibia 33.6945
rfoot -16.6072 -14.3154
rtoes -13.7996
lfemur -12.7158 -2.1164 -19.8556
ltibia 31.1461
lfoot -17.2608 7.94304
ltoes -16.5667
199
root -0.247994 17.7457 -2.5402 -0.866303 -0.371863 1.76927
lowerback 8.46356 1.74109 -0.00485233
upperback 4.6637 2.30982 -0.000905807
thorax 0.0808535 1.15538 -0.187405
lowerneck -1.9125 -5.01896 -6.52195
upperneck 10.2066 -6.93435 5.64795
head 3.77943 -3.42785 2.493
rclavicle 6.4605e-015 -5.56597e-015
rhumerus 43.7272 45.7227 -34.0826
rradius 107.395
rwrist -45.8258
rhand -11.0062 24.5525
rfingers 7.12502
rthumb 15.0146 -4.88311
lclavicle 6.4605e-015 -5.56597e-015
lhumerus 87.2277 -56.32 -20.7172
lradius 83.8033
lwrist 4.33023
lhand -14.2294 14.4447
lfingers 7.12502
lthumb 11.9079 44.0861
rfemur -14.7994 0.132529 17.3164
rtibia 33.7861
rfoot -16.7148 -14.1024
rtoes -12.5863
lfemur -12.6976 -2.10127 -19.8556
ltibia 31.1917
lfoot -17.2975 7.92659
ltoes -16.4376
200
root -0.248885 17.7436 -2.53969 -0.911788 -0.363486 1.76958
lowerback 8.51606 1.59335 -0.297385
upperback 4.63767 2.09401 0.180186
thorax 0.00718892 1.04014 0.178088
lowerneck -2.03692 -4.90717 -6.9147
upperneck 10.308 -6.77132 5.7619
head 3.83771 -3.35516 2.59487
rclavicle -2.65378e-014 2.38542e-015
rhumerus 43.6706 44.501 -35.0528
rradius 105.925
rwrist -45.6313
rhand -11.8113 24.5066
rfingers 7.12502
rthumb 14.2389 -4.98528
lclavicle -2.65378e-014 2.38542e-015
lhumerus 88.1815 -56.2703 -22.0246
lradius 85.5201
lwrist 4.01653
lhand -13.7348 14.0842
lfingers 7.12502
lthumb 12.3848 43.6973
rfemur -14.7619 0.129845 17.3186
rtibia 33.8098
rfoot -16.7702 -14.0833
rtoes -12.3365
lfemur -12.6665 -2.09519 -19.8547
ltibia 31.241
lfoot -17.3169 7.92215
ltoes -16.4981
